<?xml version="1.0" encoding="UTF-8" standalone="no"?>
<svg
   viewBox="0 0 16 16"
   version="1.1"
   id="svg1"
   sodipodi:docname="calendar-month-outline.svg"
   width="16"
   height="16"
   inkscape:version="1.4 (e7c3feb100, 2024-10-09)"
   xmlns:inkscape="http://www.inkscape.org/namespaces/inkscape"
   xmlns:sodipodi="http://sodipodi.sourceforge.net/DTD/sodipodi-0.dtd"
   xmlns="http://www.w3.org/2000/svg"
   xmlns:svg="http://www.w3.org/2000/svg">
  <defs
     id="defs1">
    <inkscape:path-effect
       effect="offset"
       id="path-effect1"
       is_visible="true"
       lpeversion="1.3"
       linejoin_type="miter"
       unit="mm"
       offset="-0.087935293"
       miter_limit="4"
       attempt_force_join="false"
       update_on_knot_move="true" />
  </defs>
  <sodipodi:namedview
     id="namedview1"
     pagecolor="#ffffff"
     bordercolor="#000000"
     borderopacity="0.25"
     inkscape:showpageshadow="2"
     inkscape:pageopacity="0.0"
     inkscape:pagecheckerboard="0"
     inkscape:deskcolor="#d1d1d1"
     inkscape:zoom="21.666667"
     inkscape:cx="12.023077"
     inkscape:cy="12"
     inkscape:window-width="1366"
     inkscape:window-height="689"
     inkscape:window-x="0"
     inkscape:window-y="0"
     inkscape:window-maximized="1"
     inkscape:current-layer="svg1" />
  <path
     d="m 6.3886719,1.3886719 h 1.2226562 v 2 h 8.7773439 v -2 h 1.222656 v 2 H 19 c 0.900296,0 1.611328,0.7205875 1.611328,1.6113281 v 14 c 0,0.902626 -0.708702,1.611328 -1.611328,1.611328 H 5 C 4.0997042,20.611328 3.3886719,19.890741 3.3886719,19 V 5 C 3.3886719,4.1116106 4.1116106,3.3886719 5,3.3886719 H 6.3886719 Z M 4.6113281,4.6113281 V 7.3886719 H 19.388672 V 4.6113281 Z m 0,4 V 19.388672 H 19.388672 V 8.6113281 Z m 2.7773438,2.7773439 h 1.2226562 v 1.222656 H 7.3886719 Z m 4.0000001,0 h 1.222656 v 1.222656 h -1.222656 z m 4,0 h 1.222656 v 1.222656 h -1.222656 z m -8.0000001,4 h 1.2226562 v 1.222656 H 7.3886719 Z m 4.0000001,0 h 1.222656 v 1.222656 h -1.222656 z m 4,0 h 1.222656 v 1.222656 h -1.222656 z"
     id="path1"
     style="stroke-width:1;stroke-dasharray:none"
     inkscape:path-effect="#path-effect1"
     inkscape:original-d="m 7,11 h 2 v 2 H 7 V 11 M 21,5 v 14 c 0,1.11 -0.89,2 -2,2 H 5 C 3.89,21 3,20.1 3,19 V 5 C 3,3.9 3.9,3 5,3 H 6 V 1 h 2 v 2 h 8 V 1 h 2 v 2 h 1 c 1.11,0 2,0.9 2,2 M 5,7 H 19 V 5 H 5 V 7 M 19,19 V 9 H 5 v 10 h 14 m -4,-6 v -2 h 2 v 2 h -2 m -4,0 v -2 h 2 v 2 h -2 m -4,2 h 2 v 2 H 7 v -2 m 8,2 v -2 h 2 v 2 h -2 m -4,0 v -2 h 2 v 2 z"
     transform="matrix(0.92900885,0,0,0.83235115,-3.1481062,-1.1558627)" />
</svg>
