<?xml version="1.0" encoding="UTF-8" standalone="no"?>
<svg
   viewBox="0 0 14 18"
   version="1.1"
   id="svg1"
   sodipodi:docname="delete-forever-outline.svg"
   width="14"
   height="18"
   inkscape:version="1.4 (e7c3feb100, 2024-10-09)"
   xmlns:inkscape="http://www.inkscape.org/namespaces/inkscape"
   xmlns:sodipodi="http://sodipodi.sourceforge.net/DTD/sodipodi-0.dtd"
   xmlns="http://www.w3.org/2000/svg"
   xmlns:svg="http://www.w3.org/2000/svg">
  <defs
     id="defs1">
    <inkscape:path-effect
       effect="offset"
       id="path-effect1"
       is_visible="true"
       lpeversion="1.3"
       linejoin_type="miter"
       unit="mm"
       offset="-0.10519397"
       miter_limit="4"
       attempt_force_join="false"
       update_on_knot_move="true" />
  </defs>
  <sodipodi:namedview
     id="namedview1"
     pagecolor="#ffffff"
     bordercolor="#000000"
     borderopacity="0.25"
     inkscape:showpageshadow="2"
     inkscape:pageopacity="0.0"
     inkscape:pagecheckerboard="0"
     inkscape:deskcolor="#d1d1d1"
     inkscape:zoom="21.666667"
     inkscape:cx="12.023077"
     inkscape:cy="12"
     inkscape:window-width="1366"
     inkscape:window-height="689"
     inkscape:window-x="0"
     inkscape:window-y="0"
     inkscape:window-maximized="1"
     inkscape:current-layer="svg1" />
  <path
     d="M 4.6582031,0.38867188 H 9.3417969 L 10.339844,1.3886719 h 3.271484 V 2.6113281 H 0.38867188 V 1.3886719 H 3.6601563 Z M 1.3886719,4.3886719 H 12.611328 V 16 c 0,0.894904 -0.716424,1.611328 -1.611328,1.611328 H 3 C 2.1050957,17.611328 1.3886719,16.894904 1.3886719,16 Z M 2.6113281,5.6113281 V 16.388672 H 11.388672 V 5.6113281 Z M 9.1191406,8.0175781 9.9824219,8.8808594 7.8613281,11 9.9824219,13.119141 9.1191406,13.982422 7,11.861328 4.8808594,13.982422 4.0175781,13.119141 6.1386719,11 4.0097656,8.8808594 4.8691406,8.0195313 7,10.138672 Z"
     id="path1"
     inkscape:path-effect="#path-effect1"
     inkscape:original-d="M 9.12,7.47 7,9.59 4.87,7.47 3.46,8.88 5.59,11 3.47,13.12 4.88,14.53 7,12.41 9.12,14.53 10.53,13.12 8.41,11 10.53,8.88 9.12,7.47 M 10.5,1 9.5,0 h -5 l -1,1 H 0 V 3 H 14 V 1 H 10.5 M 1,16 a 2,2 0 0 0 2,2 h 8 a 2,2 0 0 0 2,-2 V 4 H 1 V 16 M 3,6 h 8 V 16 H 3 Z"
     transform="matrix(1.0587888,0,0,1.045135,-0.4115216,-0.406215)" />
</svg>
