<?xml version="1.0" encoding="UTF-8" standalone="no"?>
<svg
   height="34.032001"
   width="32"
   viewBox="0 0 32 34.032002"
   version="1.1"
   id="svg1"
   sodipodi:docname="sun-clock-outline.svg"
   inkscape:version="1.4 (e7c3feb100, 2024-10-09)"
   xmlns:inkscape="http://www.inkscape.org/namespaces/inkscape"
   xmlns:sodipodi="http://sodipodi.sourceforge.net/DTD/sodipodi-0.dtd"
   xmlns="http://www.w3.org/2000/svg"
   xmlns:svg="http://www.w3.org/2000/svg">
  <defs
     id="defs1">
    <inkscape:path-effect
       effect="offset"
       id="path-effect1"
       is_visible="true"
       lpeversion="1.3"
       linejoin_type="miter"
       unit="mm"
       offset="-0.16257194"
       miter_limit="4"
       attempt_force_join="false"
       update_on_knot_move="true" />
  </defs>
  <sodipodi:namedview
     id="namedview1"
     pagecolor="#ffffff"
     bordercolor="#000000"
     borderopacity="0.25"
     inkscape:showpageshadow="2"
     inkscape:pageopacity="0.0"
     inkscape:pagecheckerboard="0"
     inkscape:deskcolor="#d1d1d1"
     inkscape:zoom="13.052184"
     inkscape:cx="9.1172484"
     inkscape:cy="18.157881"
     inkscape:window-width="1366"
     inkscape:window-height="689"
     inkscape:window-x="0"
     inkscape:window-y="0"
     inkscape:window-maximized="1"
     inkscape:current-layer="svg1" />
  <path
     d="m 11,1.6777344 1.457031,2.0839844 C 11.985347,3.6670877 11.498424,3.6113281 11,3.6113281 c -0.498424,0 -0.985347,0.05576 -1.4570312,0.1503907 z m 5.529297,4.4414062 2.535156,0.21875 -1.087891,2.328125 C 17.832217,8.2050376 17.644236,7.7472953 17.386719,7.3046875 17.137015,6.8766241 16.846159,6.4815524 16.529297,6.1191406 Z M 5.4667969,6.1269531 C 5.1486952,6.4850524 4.8545749,6.8737269 4.6054687,7.3007812 4.3430299,7.7421557 4.1512253,8.1897902 4.0019531,8.6425781 L 2.9277344,6.3398437 Z M 11,6.3886719 c 1.903061,0 3.514454,1.1535881 4.224609,2.7675781 l 0.101563,0.2324219 H 16 c 0.565212,0 1.113463,0.074336 1.634766,0.2070312 l 0.242187,0.0625 0.107422,0.033203 C 20.665006,10.531463 22.611328,13.040252 22.611328,16 22.611328,19.66082 19.66082,22.611328 16,22.611328 12.33918,22.611328 9.3886719,19.66082 9.3886719,16 V 15.326172 L 9.15625,15.224609 C 7.54226,14.514454 6.3886719,12.903061 6.3886719,11 6.3886719,8.4499068 8.4499068,6.3886719 11,6.3886719 Z m 0,1.2226562 c -1.8652466,0 -3.3886719,1.5234253 -3.3886719,3.3886719 0,1.22109 0.6541331,2.293991 1.6367188,2.892578 L 9.6503906,14.136719 9.8125,13.695313 C 10.47295,11.902663 11.902663,10.47295 13.695313,9.8125 L 14.136719,9.6503906 13.892578,9.2480469 C 13.293991,8.2654612 12.22109,7.6113281 11,7.6113281 Z m 5,2.9999999 c -2.975707,0 -5.388672,2.412965 -5.388672,5.388672 0,2.975707 2.412965,5.388672 5.388672,5.388672 2.975707,0 5.388672,-2.412965 5.388672,-5.388672 0,-2.975707 -2.412965,-5.388672 -5.388672,-5.388672 z m -0.611328,1.777344 h 0.722656 v 4.082031 l 2.710938,1.601563 -0.341797,0.558593 -3.091797,-1.849609 z M 4.0175781,13.365234 c 0.152627,0.453266 0.3452753,0.900246 0.59375,1.326172 0.2501652,0.440767 0.5432946,0.835056 0.859375,1.195313 l -2.5253906,-0.22461 z"
     id="path1"
     inkscape:path-effect="#path-effect1"
     inkscape:original-d="M 18.1,9.32 19.65,6 15.5,5.64 c 0.6,0.51 1.13,1.14 1.55,1.86 0.32,0.55 0.53,1.13 0.68,1.72 C 17.18,9.08 16.6,9 16,9 H 15.58 C 14.81,7.25 13.06,6 11,6 8.24,6 6,8.24 6,11 c 0,2.06 1.25,3.81 3,4.58 V 16 c 0,3.87 3.13,7 7,7 3.87,0 7,-3.13 7,-7 0,-3.13 -2.06,-5.79 -4.9,-6.68 M 8,11 c 0,-1.65 1.35,-3 3,-3 1.08,0 2.03,0.58 2.56,1.45 -1.9,0.7 -3.41,2.21 -4.11,4.11 C 8.58,13.03 8,12.08 8,11 m 8,10 c -2.76,0 -5,-2.24 -5,-5 0,-2.76 2.24,-5 5,-5 2.76,0 5,2.24 5,5 0,2.76 -2.24,5 -5,5 m 0.5,-4.75 2.86,1.69 -0.75,1.22 L 15,17 v -5 h 1.5 v 4.25 M 11,4 C 10.16,4 9.35,4.15 8.61,4.42 L 11,1 13.39,4.42 C 12.65,4.15 11.84,4 11,4 M 4.95,14.5 c 0.42,0.74 0.96,1.36 1.55,1.87 L 2.36,16 4.12,12.23 C 4.26,13 4.53,13.78 4.95,14.5 M 4.11,9.79 2.34,6 6.5,5.65 C 5.9,6.16 5.36,6.78 4.94,7.5 4.5,8.24 4.25,9 4.11,9.79 Z"
     transform="matrix(1.6257194,0,0,1.6257194,-4.7596745,-2.7275622)"
     sodipodi:nodetypes="cccccscsscsssccsccccsssccccccccccccccccccccccc" />
</svg>
